# xmcd
#
# Track frame offsets:
#	150
#	20202
#	39515
#	60362
#	74993
#	87144
#	106688
#	112453
#	126333
#	144638
#	160130
#	174085
#	188907
#	203909
#
# Disc length: 2909 seconds
#
# Revision: 1
# Processed by: cddbd v1.5.1PL2 Copyright (c) Steve Scherf et al.
# Submitted via: EasyCDDAExtractor 5.0.6
#
DISCID=cc0b5b0e
DTITLE=Lucero - That Much Further West
DYEAR=2003
DGENRE=Country
TTITLE0=That Much Further West
TTITLE1=Mine Tonight
TTITLE2=Sad And Lonely
TTITLE3=Across The River
TTITLE4=The Only One
TTITLE5=Hate And Jealousy
TTITLE6=Joining The Army
TTITLE7=Tonight Ain't Gonna Be Good
TTITLE8=Tears Don't Matter Much
TTITLE9=Coming Home
TTITLE10=When You Decided To Leave
TTITLE11=That Much Further West (Demo)
TTITLE12=The Bridge (Bonus Track)
TTITLE13=Last November (Bonus Track)
EXTD=
EXTT0=
EXTT1=
EXTT2=
EXTT3=
EXTT4=
EXTT5=
EXTT6=
EXTT7=
EXTT8=
EXTT9=
EXTT10=
EXTT11=
EXTT12=
EXTT13=
PLAYORDER=
